<svg width="0" height="0" class="hidden">
	<symbol xmlns="http://www.w3.org/2000/svg" id="home-icon" viewBox="0 0 22 19" fill="none">
		<path fill-rule="evenodd" clip-rule="evenodd" d="M9.69795 0.799014C10.0605 0.488089 10.5223 0.317169 11 0.317169C11.4776 0.317169 11.9394 0.488089 12.302 0.799014L18.638 6.22901L21.125 8.21901C21.2275 8.30109 21.3129 8.40256 21.3763 8.51764C21.4396 8.63272 21.4797 8.75915 21.4941 8.88971C21.5086 9.02026 21.4973 9.1524 21.4607 9.27856C21.4241 9.40473 21.363 9.52245 21.281 9.62501C21.1989 9.72758 21.0974 9.81297 20.9823 9.87631C20.8672 9.93966 20.7408 9.97972 20.6103 9.99421C20.4797 10.0087 20.3476 9.99732 20.2214 9.96074C20.0952 9.92416 19.9775 9.86309 19.875 9.78101L19 9.08101V17C19 17.5304 18.7892 18.0392 18.4142 18.4142C18.0391 18.7893 17.5304 19 17 19H13V14C13 13.4696 12.7892 12.9609 12.4142 12.5858C12.0391 12.2107 11.5304 12 11 12C10.4695 12 9.96081 12.2107 9.58574 12.5858C9.21067 12.9609 8.99995 13.4696 8.99995 14V19H4.99995C4.46952 19 3.96081 18.7893 3.58574 18.4142C3.21067 18.0392 2.99995 17.5304 2.99995 17V9.08001L2.12495 9.78001C2.02309 9.867 1.90478 9.93263 1.77707 9.97301C1.64935 10.0134 1.51482 10.0277 1.38146 10.0151C1.24811 10.0025 1.11865 9.96322 1.00076 9.89962C0.882872 9.83601 0.778965 9.74938 0.695205 9.64484C0.611446 9.54031 0.549541 9.42002 0.513165 9.2911C0.476789 9.16218 0.466684 9.02727 0.48345 8.89438C0.500215 8.76148 0.543509 8.63331 0.610762 8.51746C0.678016 8.40162 0.767857 8.30047 0.874953 8.22001L3.36195 6.23001L9.69795 0.799014Z" fill="currentColor"/>
	</symbol>
	<symbol xmlns="http://www.w3.org/2000/svg" id="plus-icon" viewBox="0 0 32 32">
		<path fill="currentColor" fill-rule="evenodd" d="M28 12h-8V4a4 4 0 1 0-8 0v8H4a4 4 0 1 0 0 8h8v8a4 4 0 1 0 8 0v-8h8a4 4 0 1 0 0-8"/>
	</symbol>
	<symbol xmlns="http://www.w3.org/2000/svg" fill="currentColor"  id="eye-icon" viewBox="0 0 48 48">
		<path fill="none" d="M0 0h48v48H0z"/>
		<circle cx="24" fill="none" cy="24" r="4"/>
		<path d="M24 38c12 0 20-14 20-14s-8-14-20-14S4 24 4 24s8 14 20 14zm0-22a8 8 0 1 1 0 16 8 8 0 0 1 0-16z"/>
	</symbol>
	<symbol viewBox="0 0 24 24" id="sun-icon" fill="none" xmlns="http://www.w3.org/2000/svg">
		<g stroke-width="0"></g><g stroke-linecap="round" stroke-linejoin="round"></g><g> <circle cx="12" cy="12" r="5" stroke="currentColor" stroke-width="1.5"></circle> <path d="M12 2V4" stroke="currentColor" stroke-width="1.5" stroke-linecap="round"></path> <path d="M12 20V22" stroke="currentColor" stroke-width="1.5" stroke-linecap="round"></path> <path d="M4 12L2 12" stroke="currentColor" stroke-width="1.5" stroke-linecap="round"></path> <path d="M22 12L20 12" stroke="currentColor" stroke-width="1.5" stroke-linecap="round"></path> <path d="M19.7778 4.22266L17.5558 6.25424" stroke="currentColor" stroke-width="1.5" stroke-linecap="round"></path> <path d="M4.22217 4.22266L6.44418 6.25424" stroke="currentColor" stroke-width="1.5" stroke-linecap="round"></path> <path d="M6.44434 17.5557L4.22211 19.7779" stroke="currentColor" stroke-width="1.5" stroke-linecap="round"></path> <path d="M19.7778 19.7773L17.5558 17.5551" stroke="currentColor" stroke-width="1.5" stroke-linecap="round"></path> </g>
	</symbol>
	<symbol viewBox="0 0 24 24" id="moon-icon" fill="none" xmlns="http://www.w3.org/2000/svg">
		<g stroke-width="0"></g><g stroke-linecap="round" stroke-linejoin="round"></g><g> <path d="M21.0672 11.8568L20.4253 11.469L21.0672 11.8568ZM12.1432 2.93276L11.7553 2.29085V2.29085L12.1432 2.93276ZM21.25 12C21.25 17.1086 17.1086 21.25 12 21.25V22.75C17.9371 22.75 22.75 17.9371 22.75 12H21.25ZM12 21.25C6.89137 21.25 2.75 17.1086 2.75 12H1.25C1.25 17.9371 6.06294 22.75 12 22.75V21.25ZM2.75 12C2.75 6.89137 6.89137 2.75 12 2.75V1.25C6.06294 1.25 1.25 6.06294 1.25 12H2.75ZM15.5 14.25C12.3244 14.25 9.75 11.6756 9.75 8.5H8.25C8.25 12.5041 11.4959 15.75 15.5 15.75V14.25ZM20.4253 11.469C19.4172 13.1373 17.5882 14.25 15.5 14.25V15.75C18.1349 15.75 20.4407 14.3439 21.7092 12.2447L20.4253 11.469ZM9.75 8.5C9.75 6.41182 10.8627 4.5828 12.531 3.57467L11.7553 2.29085C9.65609 3.5593 8.25 5.86509 8.25 8.5H9.75ZM12 2.75C11.9115 2.75 11.8077 2.71008 11.7324 2.63168C11.6686 2.56527 11.6538 2.50244 11.6503 2.47703C11.6461 2.44587 11.6482 2.35557 11.7553 2.29085L12.531 3.57467C13.0342 3.27065 13.196 2.71398 13.1368 2.27627C13.0754 1.82126 12.7166 1.25 12 1.25V2.75ZM21.7092 12.2447C21.6444 12.3518 21.5541 12.3539 21.523 12.3497C21.4976 12.3462 21.4347 12.3314 21.3683 12.2676C21.2899 12.1923 21.25 12.0885 21.25 12H22.75C22.75 11.2834 22.1787 10.9246 21.7237 10.8632C21.286 10.804 20.7293 10.9658 20.4253 11.469L21.7092 12.2447Z" fill="currentColor"></path> </g>
	</symbol>
	<symbol xmlns="http://www.w3.org/2000/svg" id="prev-icon" fill="none" viewBox="0 0 24 24">
		<path fill="currentColor" d="M8 10v4H6L0 8l6-6h2v4h8v4H8Z"/>
	</symbol>
	<symbol xmlns="http://www.w3.org/2000/svg" id="next-icon" fill="none" viewBox="0 0 24 24">
		<path fill="currentColor" d="M8 6V2h2l6 6-6 6H8v-4H0V6h8Z"/>
	</symbol>
	<symbol xmlns="http://www.w3.org/2000/svg" fill="currentColor" id="details-icon" viewBox="0 0 36 36">
		<path d="M32 6H4a2 2 0 0 0-2 2v20a2 2 0 0 0 2 2h28a2 2 0 0 0 2-2V8a2 2 0 0 0-2-2ZM19 22H9a1 1 0 0 1 0-2h10a1 1 0 0 1 0 2Zm8-4H9a1 1 0 0 1 0-2h18a1 1 0 0 1 0 2Zm0-4H9a1 1 0 0 1 0-2h18a1 1 0 0 1 0 2Z" class="clr-i-solid clr-i-solid-path-1"/><path fill="none" d="M0 0h36v36H0z"/>
	</symbol>
	<symbol xmlns="http://www.w3.org/2000/svg" id="edit-icon" fill="none" viewBox="0 0 24 24">
		<g fill="currentColor" fill-rule="evenodd" clip-rule="evenodd">
			<path d="M12 21a1 1 0 0 1 1-1h8a1 1 0 1 1 0 2h-8a1 1 0 0 1-1-1ZM20.774 8.1c1.61-1.616 1.541-3.738.339-5.038A3.31 3.31 0 0 0 18.748 2c-.949-.022-1.931.34-2.838 1.099a.988.988 0 0 0-.067.061L2.874 16.181A3 3 0 0 0 2 18.3v1.693C2 21.094 2.892 22 4.004 22h1.679a3 3 0 0 0 2.125-.883L20.774 8.1Zm-3.567-2.307a1 1 0 1 0-1.414 1.414l1 1a1 1 0 1 0 1.414-1.414l-1-1Z"/>
		</g>
	</symbol>
	<symbol xmlns="http://www.w3.org/2000/svg" id="delete-icon" fill="currentColor" viewBox="0 0 24 24">
		<path d="M5.755 20.283 4 8h16l-1.755 12.283A2 2 0 0 1 16.265 22h-8.53a2 2 0 0 1-1.98-1.717ZM21 4h-5V3a1 1 0 0 0-1-1H9a1 1 0 0 0-1 1v1H3a1 1 0 0 0 0 2h18a1 1 0 0 0 0-2Z"/>
	</symbol>
</svg>